<?xml version="1.0" encoding="utf-8"?>
<!-- Generator: Adobe Illustrator 16.0.0, SVG Export Plug-In . SVG Version: 6.00 Build 0)  -->
<!DOCTYPE svg PUBLIC "-//W3C//DTD SVG 1.1//EN" "http://www.w3.org/Graphics/SVG/1.1/DTD/svg11.dtd">
<svg version="1.1" id="Ebene_1" xmlns="http://www.w3.org/2000/svg" xmlns:xlink="http://www.w3.org/1999/xlink" x="0px" y="0px"
	 width="500px" height="500px" viewBox="0 0 500 500" enable-background="new 0 0 500 500" xml:space="preserve">
<circle fill="#F1F2F2" cx="250" cy="250" r="225"/>
<g>
	<g>
		<path fill="none" stroke="#F68B1F" stroke-width="20" stroke-linecap="round" stroke-linejoin="round" stroke-miterlimit="10" d="
			M221.182,22.168c0,0-6.742,46.551-62.941,92.133c0,0-117,78.566,0,166.188c58.289,43.652,62.941,92.133,62.941,92.133"/>
		<path fill="none" stroke="#F68B1F" stroke-width="20" stroke-linecap="round" stroke-linejoin="round" stroke-miterlimit="10" d="
			M106.24,22.168c0,0,6.742,46.551,62.941,92.133c0,0,117,78.566,0,166.188c-58.289,43.652-62.941,92.133-62.941,92.133"/>
		
			<line fill="none" stroke="#F68B1F" stroke-width="20" stroke-linecap="round" stroke-linejoin="round" stroke-miterlimit="10" x1="216.432" y1="172.543" x2="112.182" y2="172.543"/>
		
			<line fill="none" stroke="#F68B1F" stroke-width="20" stroke-linecap="round" stroke-linejoin="round" stroke-miterlimit="10" x1="213.205" y1="231.461" x2="117.85" y2="231.461"/>
		
			<line fill="none" stroke="#F68B1F" stroke-width="20" stroke-linecap="round" stroke-linejoin="round" stroke-miterlimit="10" x1="211.635" y1="343.059" x2="115.967" y2="343.059"/>
		
			<line fill="none" stroke="#F68B1F" stroke-width="20" stroke-linecap="round" stroke-linejoin="round" stroke-miterlimit="10" x1="203.518" y1="59.125" x2="121.182" y2="59.125"/>
	</g>
</g>
<g>
	<path fill="none" stroke="#4D4D4F" stroke-width="20" stroke-linecap="round" stroke-linejoin="round" stroke-miterlimit="10" d="
		M306.51,203.195c0,0,5.383,37.199,50.297,73.625c0,0,93.496,62.781,0,132.801c-46.586,34.887-50.297,73.625-50.297,73.625"/>
	
		<line fill="none" stroke="#4D4D4F" stroke-width="20" stroke-linecap="round" stroke-linejoin="round" stroke-miterlimit="10" x1="386.564" y1="323.363" x2="332.256" y2="323.363"/>
	
		<line fill="none" stroke="#4D4D4F" stroke-width="20" stroke-linecap="round" stroke-linejoin="round" stroke-miterlimit="10" x1="391.986" y1="370.441" x2="336.447" y2="370.441"/>
	
		<line fill="none" stroke="#4D4D4F" stroke-width="20" stroke-linecap="round" stroke-linejoin="round" stroke-miterlimit="10" x1="369.732" y1="459.629" x2="314.283" y2="459.629"/>
	
		<line fill="none" stroke="#4D4D4F" stroke-width="20" stroke-linecap="round" stroke-linejoin="round" stroke-miterlimit="10" x1="363.244" y1="232.73" x2="318.447" y2="232.73"/>
</g>
</svg>
